# xmcd
#
# Track frame offsets:
#	150
#	18490
#	30960
#	44135
#	57760
#	75515
#	87037
#	103590
#	114585
#	132920
#	145852
#	158272
#
# Disc length: 2323 seconds
#
# Revision: 0
# Processed by: cddbd v1.5PL3 Copyright (c) Steve Scherf et al.
# Submitted via: dBpowerAMP V4.0
#
DISCID=8a09110c
DTITLE=Slim Dusty - Who's Riding Old Harlequin Now?
DYEAR=1982
DGENRE=Country
TTITLE0=Who's Riding Old Harlequin Now?
TTITLE1=Nulla Creek
TTITLE2=Every Little Bit Of Australia
TTITLE3=Old Dan
TTITLE4=The Brass Well
TTITLE5=Your Country's Been Sold
TTITLE6=Banjo's Man
TTITLE7=Old King Coal
TTITLE8=Last Thing To Learn
TTITLE9=I Guess You Have
TTITLE10=Captain Thunderbolt
TTITLE11=It Takes A Drought
EXTD=
EXTT0=
EXTT1=
EXTT2=
EXTT3=
EXTT4=
EXTT5=
EXTT6=
EXTT7=
EXTT8=
EXTT9=
EXTT10=
EXTT11=
PLAYORDER=
